<svg id="Capa_1" data-name="Capa 1" xmlns="http://www.w3.org/2000/svg" xmlns:xlink="http://www.w3.org/1999/xlink" viewBox="0 0 1920 1080"><defs><style>.cls-1,.cls-5{fill:none;}.cls-2{fill:#e3d136;}.cls-3{fill:#1cbfe5;}.cls-4{clip-path:url(#clip-path);}.cls-5{stroke:#3177b9;stroke-miterlimit:10;stroke-width:3px;}.cls-6{clip-path:url(#clip-path-2);}</style><clipPath id="clip-path"><rect class="cls-1" x="1991" y="-1138" width="1920" height="1080" transform="translate(5902 -1196) rotate(-180)"/></clipPath><clipPath id="clip-path-2"><rect class="cls-1" x="1979" width="1920" height="1080" transform="translate(5878 1080) rotate(-180)"/></clipPath></defs><title>30Mesa de trabajo 6</title><rect class="cls-2" x="135.5" y="117.5" width="725" height="288"/><rect class="cls-3" x="1059.5" y="674.5" width="725" height="288"/><g class="cls-4"><path class="cls-5" d="M3214.59,386.41c-41.17-41.36-1297-1297-1297-1297"/><path class="cls-5" d="M3193.25,407.75c-41.17-41.36-1297-1297-1297-1297"/><path class="cls-5" d="M3171.92,429.08c-41.17-41.36-1297-1297-1297-1297"/><path class="cls-5" d="M3150.58,450.42c-41.17-41.36-1297-1297-1297-1297"/><path class="cls-5" d="M3129.24,471.76c-41.17-41.36-1297-1297-1297-1297"/><path class="cls-5" d="M3107.9,493.1c-41.17-41.36-1297-1297-1297-1297"/><path class="cls-5" d="M3086.57,514.43c-41.17-41.36-1297-1297-1297-1297"/><path class="cls-5" d="M3065.23,535.77c-41.17-41.36-1297-1297-1297-1297"/><path class="cls-5" d="M3043.89,557.11c-41.17-41.36-1297-1297-1297-1297"/><path class="cls-5" d="M3022.55,578.45c-41.17-41.36-1297-1297-1297-1297"/></g><g class="cls-6"><path class="cls-5" d="M3202.59,1524.41c-41.17-41.36-1297-1297-1297-1297"/><path class="cls-5" d="M3181.25,1545.75c-41.17-41.36-1297-1297-1297-1297"/><path class="cls-5" d="M3159.92,1567.08c-41.17-41.36-1297-1297-1297-1297"/><path class="cls-5" d="M3138.58,1588.42c-41.17-41.36-1297-1297-1297-1297"/><path class="cls-5" d="M3117.24,1609.76c-41.17-41.36-1297-1297-1297-1297"/><path class="cls-5" d="M3095.9,1631.1c-41.17-41.36-1297-1297-1297-1297"/><path class="cls-5" d="M3074.57,1652.43c-41.17-41.36-1297-1297-1297-1297"/><path class="cls-5" d="M3053.23,1673.77c-41.17-41.36-1297-1297-1297-1297"/><path class="cls-5" d="M3031.89,1695.11c-41.17-41.36-1297-1297-1297-1297"/><path class="cls-5" d="M3010.55,1716.45c-41.17-41.36-1297-1297-1297-1297"/></g></svg>