<?xml version="1.0" encoding="utf-8"?>
<!-- Generator: Adobe Illustrator 21.0.0, SVG Export Plug-In . SVG Version: 6.00 Build 0)  -->
<svg version="1.1" id="Capa_1" xmlns="http://www.w3.org/2000/svg" xmlns:xlink="http://www.w3.org/1999/xlink" x="0px" y="0px"
	 viewBox="0 0 500 750" style="enable-background:new 0 0 500 750;" xml:space="preserve">
<style type="text/css">
	.st0{fill:#EDDA26;}
	.st1{fill:#FFFFFF;}
	.st2{fill:#1E1E1E;}
</style>
<path class="st0" d="M382.3,99.5c0.1,25.1,0.1,50.3,0.2,75.4c-1.4,1.5-2.8,3.2-4.3,4.6c-23.7,23.7-47.3,47.3-71,71
	c-18.5,18.5-36.9,37-55.4,55.4c-4.9,4.9-7.7,10.5-6.7,17.4c1.2,7.9,5.6,13.6,13.3,16c7.9,2.5,14.8,0.4,20.6-5.5
	c32.8-32.9,65.7-65.7,98.5-98.5c1.5-1.5,3.1-2.9,4.6-4.3c0,39.2,0,78.4,0,117.6c-14.6-6.7-29.5,3.9-28.8,20.5
	c0.7,19.1,0.1,38.2,0.2,57.3c0,15.2,7.4,22.5,22.7,22.6c14.5,0.1,29.1,0,43.6,0c1.9,0,3.8-0.6,6,0.9c-1.1,1.6-2.1,3.1-3.2,4.6
	C370.7,528,318.7,601.4,266.8,674.9c-4.3,6.1-4.3,6.1-8.6,0.2c-13.3-18.4-26.7-36.8-40-55.3c0.1-0.9,0.3-1.8-0.9-2.2l0.1,0.1
	c-6.3-13.9-14.3-26.8-21.5-40.2c-17-31.2-33.9-62.5-51.5-93.3c-4.6-8.1-1.1-15.9,9-15.5c14.3,0.6,28.7,0.1,43.1,0.2
	c3.4,0,4.9-0.9,4.5-4.4c-0.2-1.6,0-3.1,0-4.7c0-137.4,0-274.7,0-412.1c0-7.7,0-7.7,7.9-7.7c51.2,0,102.3,0,153.5,0
	c0.1,12.4,0.2,24.9,0.2,37.3C362.7,90.6,369.3,98,382.3,99.5z M213.8,153.6c-0.4,42.6,34.7,77.9,77.7,78.3
	c42.4,0.3,77.7-34.6,78.2-77.2c0.5-42.7-34.4-78.3-77.2-78.6C249.2,75.8,214.1,110.3,213.8,153.6z"/>
<path class="st1" d="M218.2,620.1c13.3,18.4,26.7,36.8,40,55.3c4.3,5.9,4.3,5.9,8.6-0.2c51.9-73.5,103.9-146.9,155.8-220.4
	c1.1-1.5,2.1-3.1,3.2-4.6c-2.2-1.5-4.2-0.9-6-0.9c-14.5-0.1-29.1,0-43.6,0c-15.3-0.1-22.6-7.4-22.7-22.6
	c-0.1-19.1,0.5-38.2-0.2-57.3c-0.6-16.6,14.3-27.2,28.8-20.5c7.8,4.8,10.6,12,10.4,21c-0.3,10.7-0.1,21.4-0.1,32.1
	c0,9.2-0.5,8,8.3,8.1c20,0.1,40,0,59.9,0c6.7,0,13,1.3,17.7,6.4c6.9,7.4,7.1,16.8,0.7,26c-14,19.9-28.1,39.8-42.2,59.7
	C384.6,576,332.4,649.9,280.2,723.7c-4,5.7-8.6,10.1-16,10.6c-8.1,0.5-14-3.1-18.7-9.5c-36.6-49.9-73.2-99.7-109.9-149.6
	C104,532.1,72.3,489.1,40.7,446c-2.7-3.6-5.8-7.1-6.6-11.8c-2.3-14.1,6.2-23.9,21.3-24c20.5-0.1,41,0,61.5,0c6.7,0,6.7,0,6.7-6.9
	c0-114.1,0-228.2,0-342.3c0-2.8-0.1-5.6,0.3-8.4c1.5-10.1,10.2-16.9,20.6-16.3c9.9,0.5,17.6,8.5,18,18.5c0.1,1.4,0,2.8,0,4.2
	c0,122.5,0,245,0.1,367.6c0,8.3-1.9,15.2-9.3,19.8c-4.4,2.7-9.2,3.1-14.2,3.2c-13.8,0-27.7,0-41.5,0c-1.5,0-3.4-0.7-4.2,1.1
	c-0.6,1.4,0.9,2.5,1.7,3.6c39.5,53.8,79.1,107.6,118.7,161.3c0.8,1.1,1.3,3,3.4,2.7l-0.1-0.1C216.7,619,217.4,619.5,218.2,620.1z"/>
<path class="st1" d="M382.2,231.2c-1.5,1.4-3.1,2.8-4.6,4.3c-32.8,32.8-65.7,65.7-98.5,98.5c-5.8,5.8-12.7,8-20.6,5.5
	c-7.8-2.5-12.2-8.1-13.3-16c-1-6.9,1.8-12.6,6.7-17.4c18.5-18.4,36.9-36.9,55.4-55.4c23.7-23.7,47.3-47.3,71-71
	c1.5-1.5,2.8-3.1,4.3-4.6c17.8-17.6,35.5-35.2,53.3-52.9c4.9-4.9,10.6-7.6,17.5-6.5c7.7,1.2,13.2,5.6,15.7,13.1
	c2.5,7.6,0.8,14.6-4.8,20.3c-9.8,10-19.8,19.8-29.7,29.7C417,196.1,399.6,213.6,382.2,231.2z"/>
<path class="st1" d="M72.7,154.2c0,29.5,0.1,58.9,0,88.4c0,12.6-7.8,21-19.2,21.1c-10,0.1-17.8-6.4-19.5-16.4
	c-0.3-1.9-0.4-3.8-0.4-5.8c0-58.6,0-117.1,0-175.7c0-11.6,5.6-19.3,15.4-21.5C59.8,41.8,70.6,49,72.3,60c0.4,2.6,0.4,5.2,0.4,7.9
	C72.8,96.7,72.7,125.4,72.7,154.2z"/>
<path class="st1" d="M382.3,99.5c-13-1.5-19.6-8.9-19.7-22c-0.1-12.4-0.1-24.9-0.2-37.3c0.1-3.5,0-7,0.3-10.5
	c0.7-10.9,9.4-19.1,20.1-18.8c10.5,0.3,18.7,8.6,18.8,19.4c0.2,15.8,0.1,31.5,0,47.3C401.6,90.8,395.5,97.7,382.3,99.5z"/>
<path class="st1" d="M441.7,249.7c19,0.2,33.8,15.3,33.8,34.3c0,19.1-15.4,34.3-34.5,34.3c-19.5-0.1-34.3-14.8-34.2-34.1
	C406.8,264.9,422.4,249.5,441.7,249.7z M455.2,284c0-7.7-6.2-14.1-13.8-14.2c-7.6-0.1-14,6.3-14.1,13.9s6.3,14.1,13.8,14.2
	S455.2,291.5,455.2,284z"/>
<path class="st1" d="M213.8,153.6c0.4-43.3,35.5-77.9,78.7-77.5c42.7,0.3,77.7,35.9,77.2,78.6s-35.9,77.5-78.2,77.2
	C248.5,231.6,213.4,196.2,213.8,153.6z M292.2,122.4c-17.7-0.2-32,13.7-32.1,31.3c-0.1,17.1,13.9,31.5,31.2,31.9
	c17.1,0.4,31.9-14.2,32.1-31.5C323.5,136.7,309.6,122.6,292.2,122.4z"/>
<path class="st2" d="M218.2,620.1c-0.8-0.5-1.6-1.1-0.9-2.2C218.6,618.2,218.3,619.2,218.2,620.1z"/>
<path class="st0" d="M455.2,284c0,7.5-6.6,14.1-14.1,14s-13.9-6.7-13.8-14.2c0.1-7.6,6.5-14,14.1-13.9
	C449,269.9,455.3,276.3,455.2,284z"/>
<path class="st0" d="M292.2,122.4c17.4,0.2,31.3,14.3,31.2,31.7c-0.2,17.4-15,32-32.1,31.5c-17.3-0.4-31.3-14.8-31.2-31.9
	C260.2,136.1,274.5,122.2,292.2,122.4z"/>
</svg>
