<svg id="Capa_1" data-name="Capa 1" xmlns="http://www.w3.org/2000/svg" xmlns:xlink="http://www.w3.org/1999/xlink" viewBox="0 0 1920 1080"><defs><style>.cls-1,.cls-3{fill:none;}.cls-2{clip-path:url(#clip-path);}.cls-3{stroke:#3177b9;stroke-miterlimit:10;stroke-width:3px;}</style><clipPath id="clip-path"><rect class="cls-1" width="1920" height="1080"/></clipPath></defs><title>30Mesa de trabajo 7</title><g class="cls-2"><path class="cls-3" d="M462.23,1290.23c41.17-41.36,1297-1297,1297-1297"/><path class="cls-3" d="M483.57,1311.56c41.17-41.36,1297-1297,1297-1297"/><path class="cls-3" d="M504.9,1332.9c41.17-41.36,1297-1297,1297-1297"/><path class="cls-3" d="M526.24,1354.24c41.17-41.36,1297-1297,1297-1297"/><path class="cls-3" d="M547.58,1375.58c41.17-41.36,1297-1297,1297-1297"/><path class="cls-3" d="M568.91,1396.91c41.17-41.36,1297-1297,1297-1297"/><path class="cls-3" d="M590.25,1418.25c41.17-41.36,1297-1297,1297-1297"/><path class="cls-3" d="M611.59,1439.59c41.17-41.36,1297-1297,1297-1297"/><path class="cls-3" d="M632.4,1460.4c41.17-41.36,1297-1297,1297-1297"/><path class="cls-3" d="M653.74,1481.74c41.17-41.36,1297-1297,1297-1297"/><path class="cls-3" d="M675.07,1503.07c41.17-41.36,1297-1297,1297-1297"/><path class="cls-3" d="M696.41,1524.41c41.17-41.36,1297-1297,1297-1297"/><path class="cls-3" d="M717.75,1545.75c41.17-41.36,1297-1297,1297-1297"/><path class="cls-3" d="M739.08,1567.08c41.17-41.36,1297-1297,1297-1297"/><path class="cls-3" d="M760.42,1588.42c41.17-41.36,1297-1297,1297-1297"/><path class="cls-3" d="M781.76,1609.76c41.17-41.36,1297-1297,1297-1297"/><path class="cls-3" d="M803.1,1631.1c41.17-41.36,1297-1297,1297-1297"/><path class="cls-3" d="M824.43,1652.43c41.17-41.36,1297-1297,1297-1297"/><path class="cls-3" d="M845.77,1673.77c41.17-41.36,1297-1297,1297-1297"/><path class="cls-3" d="M867.11,1695.11c41.17-41.36,1297-1297,1297-1297"/><path class="cls-3" d="M888.45,1716.45c41.17-41.36,1297-1297,1297-1297"/></g></svg>