<svg id="Capa_1" data-name="Capa 1" xmlns="http://www.w3.org/2000/svg" viewBox="0 0 1920 1080"><defs><style>.cls-1{fill:none;stroke:#3177b9;stroke-miterlimit:10;stroke-width:1.5px;}</style></defs><title>30Mesa de trabajo 7</title><path class="cls-1" d="M884,1136c26.32-26.32,830.28-825.48,830.28-825.48"/><path class="cls-1" d="M905.09,1149.53C931.41,1123.21,1735.37,324,1735.37,324"/><path class="cls-1" d="M926.18,1163.06c26.32-26.32,830.28-825.48,830.28-825.48"/><path class="cls-1" d="M947.26,1176.59c26.32-26.32,830.28-825.48,830.28-825.48"/><path class="cls-1" d="M968.35,1190.12c26.32-26.32,830.28-825.48,830.28-825.48"/><path class="cls-1" d="M989.44,1203.65c26.32-26.32,830.28-825.48,830.28-825.48"/><path class="cls-1" d="M1010.53,1217.18c26.32-26.32,830.28-825.48,830.28-825.48"/><path class="cls-1" d="M1031.61,1230.71c26.32-26.32,830.28-825.48,830.28-825.48"/><path class="cls-1" d="M1052.7,1244.24C1079,1217.92,1883,418.76,1883,418.76"/><path class="cls-1" d="M1073.79,1257.77c26.32-26.32,830.28-825.48,830.28-825.48"/><path class="cls-1" d="M1094.88,1271.3c26.32-26.32,830.28-825.48,830.28-825.48"/><path class="cls-1" d="M1116,1284.83c26.32-26.32,830.28-825.48,830.28-825.48"/><path class="cls-1" d="M1137.05,1298.36c26.32-26.32,830.28-825.48,830.28-825.48"/></svg>