<?xml version="1.0" encoding="utf-8"?>
<!-- Generator: Adobe Illustrator 21.0.0, SVG Export Plug-In . SVG Version: 6.00 Build 0)  -->
<svg version="1.1" id="Capa_1" xmlns="http://www.w3.org/2000/svg" xmlns:xlink="http://www.w3.org/1999/xlink" x="0px" y="0px"
	 viewBox="0 0 238.8 254.6" style="enable-background:new 0 0 238.8 254.6;" xml:space="preserve">
<style type="text/css">
	.st0{fill:#02DFFE;}
	.st1{fill:#FC5257;}
	.st2{fill:#FEE203;}
	.st3{fill:#2BEFAC;}
	.st4{fill:#00EF85;}
</style>
<path class="st0" d="M5.3,252.3c-0.8-0.1-1.2-0.5-1.3-1.2c-2.2-3.6-2.9-7.5-2.9-11.8C1.2,164.8,1.1,90.4,1.1,15.9c0-1.5,0-3-0.1-4.6
	c0.1-0.6,0.1-1.2,0.2-1.8C1.5,8.1,3,7.1,2.9,5.5c0.1-0.2,0.3-0.4,0.4-0.6c0.8,0,1.1-0.4,1.1-1.1c0-0.2,0.1-0.3,0.3-0.3
	C5.5,3.4,6.1,3,6.7,2.6c2.4-1.6,3.4-1.5,5.4,0.6c40.7,40.7,81.4,81.4,122.1,122.1c0.9,0.9,1.4,1.8,1,3.1c-0.3,0.4-0.5,0.8-0.9,1.1
	c-16.4,16.5-32.8,33-49.2,49.5c-24.6,24.8-49.3,49.5-73.9,74.3c-0.4-0.1-0.7,0-0.8,0.4c-0.9,0.2-1.8,0.2-2.6,0
	C6.9,253.1,6.1,252.7,5.3,252.3z"/>
<path class="st1" d="M11.2,253.2c24.6-24.8,49.3-49.5,73.9-74.3c16.4-16.5,32.8-33,49.2-49.5c0.3-0.3,0.6-0.7,0.9-1.1
	c0.8,0.1,1.2-0.6,1.8-0.8c6.1,6.7,13,12.5,19.3,19c6.5,6.6,13.2,13,19.5,19.8c-2.4,2.5-5.6,3.4-8.4,5.1
	c-10.2,5.8-20.6,11.4-30.9,17.1c-8.4,4.6-16.8,9-25.1,13.6c-8.2,4.5-16.3,9.1-24.4,13.5c-9.4,5.1-18.9,10.2-28.3,15.3
	c-7.1,3.9-14.2,7.9-21.3,11.7c-6.6,3.6-12.9,7.5-19.8,10.4c-1.8,0.8-3.9,2.5-6.2,0.7c0-0.1,0.1-0.1,0-0.2
	C11.3,253.5,11.3,253.4,11.2,253.2z"/>
<path class="st2" d="M175.8,166.3c-6.3-6.9-13-13.2-19.5-19.8c-6.3-6.5-13.3-12.3-19.3-19c0.3-0.8,1-1.4,1.6-2.1
	c4.9-4.9,9.8-9.7,14.6-14.6c7.6-7.8,15.8-15.2,22.9-23.5c1.9,1,3.9,1.9,5.8,2.9c-0.1,0.1-0.1,0.1-0.2,0.2c0,0,0.1-0.1,0.1-0.1
	c11.1,6,22.2,12,33.3,18c6.1,3.3,12.2,6.8,18.3,10.2c2.4,1.3,4,3.4,5,6c1.2,3.1-0.9,7.2-4.2,9.7c-5.1,3.9-11.1,6.5-16.7,9.7
	c-7.6,4.3-15.3,8.4-23,12.6c-5.6,3.1-11.1,6.1-16.7,9.2C177.2,166,176.5,166.1,175.8,166.3z"/>
<path class="st3" d="M176,87.4c-7.1,8.3-15.2,15.7-22.9,23.5c-4.8,4.9-9.7,9.7-14.6,14.6c-0.6,0.6-1.3,1.2-1.6,2.1
	c-0.6,0.3-1,0.9-1.8,0.8c0.4-1.3-0.1-2.1-1-3.1C93.5,84.6,52.8,43.9,12.1,3.2c-2-2-3-2.1-5.4-0.6C6.1,3,5.5,3.4,4.8,3.5
	c2.8-3.1,8.4-4.4,12.1-2.8C24.5,4.1,31.7,8.4,39,12.4c8.3,4.5,16.6,9,24.9,13.5c6.6,3.6,13.2,7.3,19.9,10.9
	c7.6,4.1,15.2,8.2,22.8,12.3c6.4,3.5,12.8,7,19.2,10.5c9.6,5.2,19.1,10.4,28.7,15.6c6.8,3.7,13.6,7.5,20.5,11.2
	C175.4,86.6,175.7,87,176,87.4z M13.3,2.4c0.4,0.5,0.7,0.8,0.9,1.1c9.6,9.8,19.3,19.5,29,29.3C60.2,50,77.2,67.1,94.6,83.9
	c13.5,13,26.5,26.4,39.7,39.7c1.1,1.1,2.2,2.3,3.8,0.6c11.7-11.8,23.4-23.5,35.1-35.3c0.9-0.9,0.8-1.6-0.3-2.2
	c-2.3-1.3-4.6-2.6-7-3.8c-5.9-2.8-11.4-6.2-17.2-9.2c-6-3.1-12-6.5-17.9-9.8c-4.6-2.5-9.2-5-13.8-7.5c-4-2.2-8.1-4.5-12.1-6.7
	c-6.5-3.6-13.1-7-19.6-10.5c-4.7-2.6-9.3-5.5-14.1-8c-5.8-3.2-11.8-6-17.6-9.3c-6-3.3-11.9-6.6-17.9-9.9C30.6,9.4,25.9,6.5,20.9,4
	C18.7,2.8,16.4,1.3,13.3,2.4z"/>
<path class="st3" d="M1.1,11.4c0,1.5,0.1,3,0.1,4.6c0,74.4,0,148.9-0.1,223.3c0,4.3,0.7,8.2,2.9,11.8c-1.9-0.5-2-2.4-2.5-3.7
	c-0.9-2.4-1.5-5-1.5-7.7C0,165,0,90.4,0,15.8C0,14.2-0.2,12.6,1.1,11.4z"/>
<path class="st3" d="M2.9,5.5c0,1.6-1.5,2.6-1.7,4.1C0.5,7.7,1.9,6.7,2.9,5.5z"/>
<path class="st3" d="M5.3,252.3c0.8,0.4,1.6,0.9,2.5,1.3C6.4,254,5.6,253.6,5.3,252.3z"/>
<path class="st3" d="M4.5,3.8C4.4,4.4,4.1,4.9,3.3,4.9C3.4,4.1,3.7,3.8,4.5,3.8z"/>
<path class="st3" d="M181.8,90.3c0,0-0.1,0.1-0.1,0.1C181.7,90.4,181.8,90.3,181.8,90.3C181.9,90.3,181.8,90.3,181.8,90.3z"/>
<path class="st3" d="M11.2,253.2c0,0.1,0.1,0.2,0.1,0.3c0,0.1,0,0.1,0,0.2c-0.3,0.1-0.7,0.3-0.9-0.2
	C10.6,253.2,10.8,253.1,11.2,253.2z"/>
<path class="st4" d="M13.3,2.4c3.1-1.1,5.4,0.4,7.6,1.5c5,2.5,9.7,5.4,14.6,8.1c6,3.2,12,6.5,17.9,9.9c5.8,3.2,11.8,6.1,17.6,9.3
	c4.7,2.6,9.3,5.4,14.1,8c6.5,3.6,13.1,6.9,19.6,10.5c4,2.2,8.1,4.5,12.1,6.7c4.6,2.5,9.2,5,13.8,7.5c6,3.3,11.9,6.7,17.9,9.8
	c5.8,3,11.4,6.3,17.2,9.2c2.4,1.1,4.7,2.5,7,3.8c1.1,0.6,1.2,1.3,0.3,2.2c-11.7,11.8-23.4,23.5-35.1,35.3c-1.6,1.6-2.6,0.5-3.8-0.6
	c-13.2-13.2-26.3-26.7-39.7-39.7C77.2,67.1,60.2,50,43.3,32.8c-9.6-9.8-19.4-19.5-29-29.3C14,3.2,13.7,2.9,13.3,2.4z"/>
</svg>
