<svg id="Capa_1" data-name="Capa 1" xmlns="http://www.w3.org/2000/svg" xmlns:xlink="http://www.w3.org/1999/xlink" viewBox="0 0 1920 1080"><defs><style>.cls-1{fill:none;}.cls-2{clip-path:url(#clip-path);}.cls-3{fill:#ccbb20;}.cls-4{fill:#1cbfe5;}.cls-5{fill:#19a8bf;}.cls-6{clip-path:url(#clip-path-2);}</style><clipPath id="clip-path"><rect class="cls-1" y="-1138" width="1920" height="1080"/></clipPath><clipPath id="clip-path-2"><rect class="cls-1" width="1920" height="1080"/></clipPath></defs><title>30Mesa de trabajo 2</title><g class="cls-2"><path class="cls-3" d="M2091.2,557.8h0a60.06,60.06,0,0,1-81.8-21.9L1643.1-98.6a60.06,60.06,0,0,1,21.9-81.8h0a60.06,60.06,0,0,1,81.8,21.9L2113.1,476a60.06,60.06,0,0,1-21.9,81.8"/><path class="cls-4" d="M1899.8,359.8h0a38.85,38.85,0,0,1-53-14.2L1609.2-65.9a38.85,38.85,0,0,1,14.2-53h0a38.85,38.85,0,0,1,53,14.2L1914,306.8a38.89,38.89,0,0,1-14.2,53"/><path class="cls-5" d="M2087.3,377.5h0a36.67,36.67,0,0,1-49.9-13.4L1813.9-23a34.17,34.17,0,0,1-2.1-4.3l-128.2-222a36.67,36.67,0,0,1,13.4-49.9h0a36.67,36.67,0,0,1,49.9,13.4l223.5,387.1a34.17,34.17,0,0,1,2.1,4.3l128.2,222a36.7,36.7,0,0,1-13.4,49.9"/><path class="cls-4" d="M1802.7-196h0a20.09,20.09,0,0,1,27.4,7.4L1953,24.2l1.2,2.4,70.5,122.1a20.09,20.09,0,0,1-7.4,27.4h0a20.09,20.09,0,0,1-27.4-7.4L1867-44.2l-1.2-2.4-70.5-122.1a20,20,0,0,1,7.4-27.3"/></g><g class="cls-6"><path class="cls-3" d="M2091.2,1695.8h0a60.06,60.06,0,0,1-81.8-21.9l-366.3-634.5a60.06,60.06,0,0,1,21.9-81.8h0a60.06,60.06,0,0,1,81.8,21.9L2113.1,1614a60.06,60.06,0,0,1-21.9,81.8"/><path class="cls-4" d="M1899.8,1497.8h0a38.85,38.85,0,0,1-53-14.2l-237.6-411.5a38.85,38.85,0,0,1,14.2-53h0a38.85,38.85,0,0,1,53,14.2L1914,1444.8a38.89,38.89,0,0,1-14.2,53"/><path class="cls-5" d="M2087.3,1515.5h0a36.67,36.67,0,0,1-49.9-13.4L1813.9,1115a34.17,34.17,0,0,1-2.1-4.3l-128.2-222a36.67,36.67,0,0,1,13.4-49.9h0a36.67,36.67,0,0,1,49.9,13.4l223.5,387.1a34.17,34.17,0,0,1,2.1,4.3l128.2,222a36.7,36.7,0,0,1-13.4,49.9"/><path class="cls-4" d="M1802.7,942h0a20.09,20.09,0,0,1,27.4,7.4L1953,1162.2l1.2,2.4,70.5,122.1a20.09,20.09,0,0,1-7.4,27.4h0a20.09,20.09,0,0,1-27.4-7.4L1867,1093.8l-1.2-2.4-70.5-122.1a20,20,0,0,1,7.4-27.3"/><path class="cls-4" d="M149.8,297.8h0a38.85,38.85,0,0,1-53-14.2L-140.8-127.9a38.85,38.85,0,0,1,14.2-53h0a38.85,38.85,0,0,1,53,14.2L164,244.8a38.89,38.89,0,0,1-14.2,53"/><path class="cls-5" d="M276.3,201.5h0a36.67,36.67,0,0,1-49.9-13.4L2.9-199a34.17,34.17,0,0,1-2.1-4.3l-128.2-222A36.67,36.67,0,0,1-114-475.2h0a36.67,36.67,0,0,1,49.9,13.4L159.4-74.7a34.17,34.17,0,0,1,2.1,4.3l128.2,222a36.7,36.7,0,0,1-13.4,49.9"/><path class="cls-4" d="M61.7-256h0a20.09,20.09,0,0,1,27.4,7.4L212-35.8l1.2,2.4L283.7,88.7a20.09,20.09,0,0,1-7.4,27.4h0a20.09,20.09,0,0,1-27.4-7.4L126-104.2l-1.2-2.4L54.3-228.7A20,20,0,0,1,61.7-256"/><path class="cls-3" d="M189.2,186.8h0a60.06,60.06,0,0,1-81.8-21.9L-258.9-469.6A60.06,60.06,0,0,1-237-551.4h0a60.06,60.06,0,0,1,81.8,21.9L211.1,105a60.06,60.06,0,0,1-21.9,81.8"/></g></svg>