<?xml version="1.0" encoding="utf-8"?>
<!-- Generator: Adobe Illustrator 21.0.0, SVG Export Plug-In . SVG Version: 6.00 Build 0)  -->
<svg version="1.1" id="Capa_1" xmlns="http://www.w3.org/2000/svg" xmlns:xlink="http://www.w3.org/1999/xlink" x="0px" y="0px"
	 viewBox="0 0 238.8 254.6" style="enable-background:new 0 0 238.8 254.6;" xml:space="preserve">
<g>
	<path d="M217.4,87.3c-39,27.6-36.3,80.1,5.4,101.2c-7,21.1-18.3,39.7-33.7,55.6c-10.1,10.4-23,12.9-35.8,6.8
		c-18.8-8.9-36.7-8.6-55.3,0.3c-10.9,5.2-22.6,4.6-31.4-4.3c-36.6-37-54.6-80.8-43.8-133.1c6.2-30.1,32.4-49.9,60.7-48.9
		c5.8,0.2,12.2,1.4,17.3,4c15,7.7,29,6.8,44.2-0.1c17.2-7.9,35.2-6.6,51.8,2.6C204.1,75.3,210.1,81.5,217.4,87.3z"/>
	<path d="M170,4c6.1,26.2-21.9,58.8-47.8,55.8C116.8,35.6,143.4,4.5,170,4z"/>
</g>
</svg>
