<svg id="Capa_1" data-name="Capa 1" xmlns="http://www.w3.org/2000/svg" xmlns:xlink="http://www.w3.org/1999/xlink" viewBox="0 0 1920 1080"><defs><style>.cls-1,.cls-3,.cls-5{fill:none;}.cls-2{clip-path:url(#clip-path);}.cls-3{stroke:#3177b9;}.cls-3,.cls-5{stroke-miterlimit:10;stroke-width:3px;}.cls-4{clip-path:url(#clip-path-2);}.cls-5{stroke:#f2f2f2;}.cls-6{clip-path:url(#clip-path-3);}.cls-7{fill:#3177b9;}.cls-8{fill:#e3d136;}.cls-9{clip-path:url(#clip-path-4);}</style><clipPath id="clip-path"><rect class="cls-1" x="12" y="-1138" width="1920" height="1080" transform="translate(1944 -1196) rotate(-180)"/></clipPath><clipPath id="clip-path-2"><rect class="cls-1" x="845" y="-963" width="603" height="666" transform="translate(2293 -1260) rotate(-180)"/></clipPath><clipPath id="clip-path-3"><rect class="cls-1" width="1920" height="1080" transform="translate(1920 1080) rotate(-180)"/></clipPath><clipPath id="clip-path-4"><rect class="cls-1" x="833" y="175" width="603" height="666" transform="translate(2269 1016) rotate(-180)"/></clipPath></defs><title>30Mesa de trabajo 2 copia 2</title><g class="cls-2"><path class="cls-3" d="M1576.46,45.54c-41.17-41.36-1297-1297-1297-1297"/><path class="cls-3" d="M1555.12,66.88c-41.17-41.36-1297-1297-1297-1297"/><path class="cls-3" d="M1533.78,88.22c-41.17-41.36-1297-1297-1297-1297"/><path class="cls-3" d="M1512.45,109.55c-41.17-41.36-1297-1297-1297-1297"/><path class="cls-3" d="M1491.11,130.89c-41.17-41.36-1297-1297-1297-1297"/><path class="cls-3" d="M1469.77,152.23c-41.17-41.36-1297-1297-1297-1297"/><path class="cls-3" d="M1448.43,173.56c-41.17-41.36-1297-1297-1297-1297"/><path class="cls-3" d="M1427.1,194.9c-41.17-41.36-1297-1297-1297-1297"/><path class="cls-3" d="M1405.76,216.24c-41.17-41.36-1297-1297-1297-1297"/><path class="cls-3" d="M1384.42,237.58c-41.17-41.36-1297-1297-1297-1297"/><path class="cls-3" d="M1363.09,258.91c-41.17-41.36-1297-1297-1297-1297"/><path class="cls-3" d="M1341.75,280.25c-41.17-41.36-1297-1297-1297-1297"/><path class="cls-3" d="M1320.41,301.59c-41.17-41.36-1297-1297-1297-1297"/><path class="cls-3" d="M1299.6,322.4C1258.43,281,2.6-974.6,2.6-974.6"/><path class="cls-3" d="M1278.26,343.74c-41.17-41.36-1297-1297-1297-1297"/><path class="cls-3" d="M1256.93,365.07c-41.17-41.36-1297-1297-1297-1297"/><path class="cls-3" d="M1235.59,386.41c-41.17-41.36-1297-1297-1297-1297"/><path class="cls-3" d="M1214.25,407.75c-41.17-41.36-1297-1297-1297-1297"/><path class="cls-3" d="M1192.92,429.08c-41.17-41.36-1297-1297-1297-1297"/><path class="cls-3" d="M1171.58,450.42c-41.17-41.36-1297-1297-1297-1297"/><path class="cls-3" d="M1150.24,471.76c-41.17-41.36-1297-1297-1297-1297"/><path class="cls-3" d="M1128.9,493.1c-41.17-41.36-1297-1297-1297-1297"/><path class="cls-3" d="M1107.57,514.43c-41.17-41.36-1297-1297-1297-1297"/><path class="cls-3" d="M1086.23,535.77c-41.17-41.36-1297-1297-1297-1297"/><path class="cls-3" d="M1064.89,557.11c-41.17-41.36-1297-1297-1297-1297"/><path class="cls-3" d="M1043.55,578.45c-41.17-41.36-1297-1297-1297-1297"/></g><g class="cls-4"><path class="cls-5" d="M1544.46,13.54c-41.17-41.36-1297-1297-1297-1297"/><path class="cls-5" d="M1523.12,34.88c-41.17-41.36-1297-1297-1297-1297"/><path class="cls-5" d="M1501.78,56.22c-41.17-41.36-1297-1297-1297-1297"/><path class="cls-5" d="M1480.45,77.55c-41.17-41.36-1297-1297-1297-1297"/><path class="cls-5" d="M1459.11,98.89c-41.17-41.36-1297-1297-1297-1297"/><path class="cls-5" d="M1437.77,120.23c-41.17-41.36-1297-1297-1297-1297"/></g><g class="cls-6"><path class="cls-3" d="M1564.46,1183.54c-41.17-41.36-1297-1297-1297-1297"/><path class="cls-3" d="M1543.12,1204.88c-41.17-41.36-1297-1297-1297-1297"/><path class="cls-3" d="M1521.78,1226.22c-41.17-41.36-1297-1297-1297-1297"/><path class="cls-3" d="M1500.45,1247.55c-41.17-41.36-1297-1297-1297-1297"/><path class="cls-3" d="M1479.11,1268.89c-41.17-41.36-1297-1297-1297-1297"/><path class="cls-3" d="M1457.77,1290.23c-41.17-41.36-1297-1297-1297-1297"/><path class="cls-3" d="M1436.43,1311.56c-41.17-41.36-1297-1297-1297-1297"/><path class="cls-3" d="M1415.1,1332.9c-41.17-41.36-1297-1297-1297-1297"/><path class="cls-3" d="M1393.76,1354.24c-41.17-41.36-1297-1297-1297-1297"/><path class="cls-3" d="M1372.42,1375.58c-41.17-41.36-1297-1297-1297-1297"/><path class="cls-3" d="M1351.09,1396.91c-41.17-41.36-1297-1297-1297-1297"/><path class="cls-3" d="M1329.75,1418.25c-41.17-41.36-1297-1297-1297-1297"/><path class="cls-3" d="M1308.41,1439.59c-41.17-41.36-1297-1297-1297-1297"/><path class="cls-3" d="M1287.6,1460.4C1246.43,1419-9.4,163.4-9.4,163.4"/><path class="cls-3" d="M1266.26,1481.74c-41.17-41.36-1297-1297-1297-1297"/><path class="cls-3" d="M1244.93,1503.07c-41.17-41.36-1297-1297-1297-1297"/><path class="cls-3" d="M1223.59,1524.41c-41.17-41.36-1297-1297-1297-1297"/><path class="cls-3" d="M1202.25,1545.75c-41.17-41.36-1297-1297-1297-1297"/><path class="cls-3" d="M1180.92,1567.08c-41.17-41.36-1297-1297-1297-1297"/><path class="cls-3" d="M1159.58,1588.42c-41.17-41.36-1297-1297-1297-1297"/><path class="cls-3" d="M1138.24,1609.76c-41.17-41.36-1297-1297-1297-1297"/><path class="cls-3" d="M1116.9,1631.1c-41.17-41.36-1297-1297-1297-1297"/><path class="cls-3" d="M1095.57,1652.43c-41.17-41.36-1297-1297-1297-1297"/><path class="cls-3" d="M1074.23,1673.77c-41.17-41.36-1297-1297-1297-1297"/><path class="cls-3" d="M1052.89,1695.11c-41.17-41.36-1297-1297-1297-1297"/><path class="cls-3" d="M1031.55,1716.45c-41.17-41.36-1297-1297-1297-1297"/></g><rect class="cls-7" x="839.72" y="174.01" width="1011.28" height="666.99"/><circle class="cls-8" cx="1207.24" cy="80.57" r="15.57"/><circle class="cls-8" cx="1276.3" cy="80.57" r="15.57"/><circle class="cls-8" cx="1345.36" cy="80.57" r="15.57"/><circle class="cls-8" cx="1414.42" cy="80.57" r="15.57"/><circle class="cls-8" cx="1483.48" cy="80.57" r="15.57"/><circle class="cls-8" cx="1207.24" cy="142.86" r="15.57"/><circle class="cls-8" cx="1276.3" cy="142.86" r="15.57"/><circle class="cls-8" cx="1345.36" cy="142.86" r="15.57"/><circle class="cls-8" cx="1414.42" cy="142.86" r="15.57"/><circle class="cls-8" cx="1483.48" cy="142.86" r="15.57"/><circle class="cls-8" cx="1207.24" cy="205.15" r="15.57"/><circle class="cls-8" cx="1276.3" cy="205.15" r="15.57"/><circle class="cls-8" cx="1345.36" cy="205.15" r="15.57"/><circle class="cls-8" cx="1414.42" cy="205.15" r="15.57"/><circle class="cls-8" cx="1483.48" cy="205.15" r="15.57"/><circle class="cls-8" cx="1207.24" cy="267.44" r="15.57"/><circle class="cls-8" cx="1276.3" cy="267.44" r="15.57"/><circle class="cls-8" cx="1345.36" cy="267.44" r="15.57"/><circle class="cls-8" cx="1414.42" cy="267.44" r="15.57"/><circle class="cls-8" cx="1483.48" cy="267.44" r="15.57"/><g class="cls-9"><path class="cls-5" d="M1532.46,1151.54c-41.17-41.36-1297-1297-1297-1297"/><path class="cls-5" d="M1511.12,1172.88c-41.17-41.36-1297-1297-1297-1297"/><path class="cls-5" d="M1489.78,1194.22c-41.17-41.36-1297-1297-1297-1297"/><path class="cls-5" d="M1468.45,1215.55c-41.17-41.36-1297-1297-1297-1297"/><path class="cls-5" d="M1447.11,1236.89c-41.17-41.36-1297-1297-1297-1297"/><path class="cls-5" d="M1425.77,1258.23c-41.17-41.36-1297-1297-1297-1297"/></g></svg>