<svg id="Capa_1" data-name="Capa 1" xmlns="http://www.w3.org/2000/svg" xmlns:xlink="http://www.w3.org/1999/xlink" viewBox="0 0 1407 1080"><defs><style>.cls-1,.cls-3,.cls-5{fill:none;}.cls-2{clip-path:url(#clip-path);}.cls-3{stroke:#3177b9;}.cls-3,.cls-5{stroke-miterlimit:10;stroke-width:3px;}.cls-4{clip-path:url(#clip-path-2);}.cls-5{stroke:#f2f2f2;}.cls-6{fill:#3177b9;}.cls-7{fill:#e3d136;}</style><clipPath id="clip-path"><rect class="cls-1" x="12" y="-1138" width="1920" height="1080" transform="translate(1944 -1196) rotate(-180)"/></clipPath><clipPath id="clip-path-2"><rect class="cls-1" x="845" y="-963" width="603" height="666" transform="translate(2293 -1260) rotate(-180)"/></clipPath></defs><title>30Mesa de trabajo 2 copia 2</title><g class="cls-2"><path class="cls-3" d="M1576.46,45.54c-41.17-41.36-1297-1297-1297-1297"/><path class="cls-3" d="M1555.12,66.88c-41.17-41.36-1297-1297-1297-1297"/><path class="cls-3" d="M1533.78,88.22c-41.17-41.36-1297-1297-1297-1297"/><path class="cls-3" d="M1512.45,109.55c-41.17-41.36-1297-1297-1297-1297"/><path class="cls-3" d="M1491.11,130.89c-41.17-41.36-1297-1297-1297-1297"/><path class="cls-3" d="M1469.77,152.23c-41.17-41.36-1297-1297-1297-1297"/><path class="cls-3" d="M1448.43,173.56c-41.17-41.36-1297-1297-1297-1297"/><path class="cls-3" d="M1427.1,194.9c-41.17-41.36-1297-1297-1297-1297"/><path class="cls-3" d="M1405.76,216.24c-41.17-41.36-1297-1297-1297-1297"/><path class="cls-3" d="M1384.42,237.58c-41.17-41.36-1297-1297-1297-1297"/><path class="cls-3" d="M1363.09,258.91c-41.17-41.36-1297-1297-1297-1297"/><path class="cls-3" d="M1341.75,280.25c-41.17-41.36-1297-1297-1297-1297"/><path class="cls-3" d="M1320.41,301.59c-41.17-41.36-1297-1297-1297-1297"/><path class="cls-3" d="M1299.6,322.4C1258.43,281,2.6-974.6,2.6-974.6"/><path class="cls-3" d="M1278.26,343.74c-41.17-41.36-1297-1297-1297-1297"/><path class="cls-3" d="M1256.93,365.07c-41.17-41.36-1297-1297-1297-1297"/><path class="cls-3" d="M1235.59,386.41c-41.17-41.36-1297-1297-1297-1297"/><path class="cls-3" d="M1214.25,407.75c-41.17-41.36-1297-1297-1297-1297"/><path class="cls-3" d="M1192.92,429.08c-41.17-41.36-1297-1297-1297-1297"/><path class="cls-3" d="M1171.58,450.42c-41.17-41.36-1297-1297-1297-1297"/><path class="cls-3" d="M1150.24,471.76c-41.17-41.36-1297-1297-1297-1297"/><path class="cls-3" d="M1128.9,493.1c-41.17-41.36-1297-1297-1297-1297"/><path class="cls-3" d="M1107.57,514.43c-41.17-41.36-1297-1297-1297-1297"/><path class="cls-3" d="M1086.23,535.77c-41.17-41.36-1297-1297-1297-1297"/><path class="cls-3" d="M1064.89,557.11c-41.17-41.36-1297-1297-1297-1297"/><path class="cls-3" d="M1043.55,578.45c-41.17-41.36-1297-1297-1297-1297"/></g><g class="cls-4"><path class="cls-5" d="M1544.46,13.54c-41.17-41.36-1297-1297-1297-1297"/><path class="cls-5" d="M1523.12,34.88c-41.17-41.36-1297-1297-1297-1297"/><path class="cls-5" d="M1501.78,56.22c-41.17-41.36-1297-1297-1297-1297"/><path class="cls-5" d="M1480.45,77.55c-41.17-41.36-1297-1297-1297-1297"/><path class="cls-5" d="M1459.11,98.89c-41.17-41.36-1297-1297-1297-1297"/><path class="cls-5" d="M1437.77,120.23c-41.17-41.36-1297-1297-1297-1297"/></g><rect class="cls-6" y="151.71" width="1407.45" height="928.29"/><circle class="cls-7" cx="511.5" cy="21.67" r="21.67"/><circle class="cls-7" cx="607.61" cy="21.67" r="21.67"/><circle class="cls-7" cx="703.73" cy="21.67" r="21.67"/><circle class="cls-7" cx="799.84" cy="21.67" r="21.67"/><circle class="cls-7" cx="895.96" cy="21.67" r="21.67"/><circle class="cls-7" cx="511.5" cy="108.36" r="21.67"/><circle class="cls-7" cx="607.61" cy="108.36" r="21.67"/><circle class="cls-7" cx="703.73" cy="108.36" r="21.67"/><circle class="cls-7" cx="799.84" cy="108.36" r="21.67"/><circle class="cls-7" cx="895.96" cy="108.36" r="21.67"/><circle class="cls-7" cx="511.5" cy="195.06" r="21.67"/><circle class="cls-7" cx="607.61" cy="195.06" r="21.67"/><circle class="cls-7" cx="703.73" cy="195.06" r="21.67"/><circle class="cls-7" cx="799.84" cy="195.06" r="21.67"/><circle class="cls-7" cx="895.96" cy="195.06" r="21.67"/><circle class="cls-7" cx="511.5" cy="281.75" r="21.67"/><circle class="cls-7" cx="607.61" cy="281.75" r="21.67"/><circle class="cls-7" cx="703.73" cy="281.75" r="21.67"/><circle class="cls-7" cx="799.84" cy="281.75" r="21.67"/><circle class="cls-7" cx="895.96" cy="281.75" r="21.67"/></svg>